#N canvas 827 239 527 327 12;
#X declare -path ../../comptools;
#X declare -path ../../my_tools;
#X obj 126 211 oscparse;
#X msg 259 57 listen 4321;
#X obj 230 145 netreceive -u -b;
#X obj 160 51 bng 25 250 50 0 empty empty empty 17 7 0 10 #e4e4e4 #4d4d4d #373737;
#X obj 36 464 select 0 1;
#X obj 27 530 bng 25 250 50 0 empty empty empty 17 7 0 10 #e4e4e4 #4d4d4d #373737;
#X obj 126 281 list trim;
#X obj 27 352 route note;
#X obj 230 352 route sequence;
#X floatatom 43 407 5 0 0 0 - - - 12;
#X floatatom 268 407 5 0 0 0 - - - 12;
#X obj 430 397 unpack 0 0;
#X floatatom 417 465 5 0 0 0 - - - 12;
#X floatatom 507 445 5 0 0 0 - - - 12;
#X obj 571 37 cnv 19 200 60 empty empty biblioteca\ de\ CAC 20 12 0 12 #e3c6ff #404040 0;
#X obj 582 69 declare -path ../../comptools;
#X obj 317 742 xk+1;
#X floatatom 511 672 5 0 0 0 - - - 12;
#X floatatom 451 672 5 0 0 0 - - - 12;
#X floatatom 407 672 5 0 0 0 - - - 12;
#X floatatom 334 808 5 0 0 0 - - - 12;
#N canvas 0 0 450 250 (subpatch) 0;
#X array scale1_handson 7 float 2;
#X coords 0 12 7 -1 164 127 1;
#X restore 888 1123 graph;
#X obj 1332 1371 hradio 123 1 0 3 empty empty Scale 99 62 0 60 #23e400 #4d4d4d #373737 0;
#X floatatom 341 878 5 0 0 0 - - - 12;
#X obj 341 910 + 60;
#X floatatom 341 943 5 0 0 0 - - - 12;
#X obj 560 878 hsl 232 30 -12 12 0 0 empty in-key key 10 15 0 20 #c7c6ff #000000 #000000 0 0;
#X floatatom 462 980 5 0 0 0 - - - 12;
#X obj 530 938 int;
#X obj 341 980 + 0;
#X obj 1319 1227 hradio 88 1 0 5 empty in-oitava octave 10 40 0 66 #e3c6ff #000000 #000000 0;
#N canvas 992 356 202 161 change-octave 0;
#X obj 19 16 inlet;
#X obj 20 48 expr ($f1-2)*12;
#X floatatom 21 74 5 0 0 0 - - - 0;
#X obj 21 98 outlet;
#X connect 0 0 1 0;
#X connect 1 0 2 0;
#X connect 2 0 3 0;
#X restore 554 1038 pd change-octave;
#X floatatom 501 1038 7 0 0 0 - - - 12;
#X obj 341 1020 + 0;
#X floatatom 343 1063 5 0 0 0 - - - 12;
#X msg 411 640 0;
#X msg 451 640 5;
#X msg 513 640 7;
#X obj 447 560 bng 25 250 50 0 empty empty empty 17 7 0 10 #e4e4e4 #4d4d4d #373737;
#X msg 232 1356 \; scale1_handson 0 0 2 4 5 7 9 11 \;;
#X obj 307 520 tgl 25 0 empty empty empty 17 7 0 10 #e4e4e4 #4d4d4d #373737 0 1;
#X obj 307 458 bng 25 250 50 0 empty empty empty 17 7 0 10 #e4e4e4 #4d4d4d #373737;
#X msg 413 1503 \; scale1_handson 0 0 2 3 5 7 9 11 \;;
#X msg 541 1528 \; scale1_handson 0 0 2 4 5 7 8 11 \;;
#X msg 660 1558 \; scale1_handson 0 0 2 3 5 7 8 11 \;;
#X obj 126 541 bng 25 250 50 0 empty empty empty 17 7 0 10 #e4e4e4 #4d4d4d #373737;
#X obj 343 1129 send-note-out;
#X obj 317 577 metro 150;
#X obj 430 352 route synth_controls;
#X obj 701 352 route synth;
#X floatatom 719 420 5 0 0 0 - - - 12;
#X obj 719 476 select 0 1;
#X msg 660 526 0 500;
#X obj 664 138 declare -path ../../my_tools;
#X obj 929 837 *~;
#X obj 1035 840 *~;
#X msg 752 526 1 500;
#X obj 719 577 vline~;
#X obj 1027 903 output~;
#X obj 341 840 tabread scale1_handson;
#X floatatom 140 1022 5 0 0 0 - - - 12;
#X obj 180 1113 send-note-out;
#X msg 266 1022 2;
#X obj 252 896 loadbang;
#X obj 618 1113 loadbang;
#X msg 517 1139 1;
#X obj 60 824 random 2;
#X floatatom 79 897 5 0 0 0 - - - 12;
#X obj 79 938 select 0 1;
#X obj 27 779 select 0 1;
#X obj 153 846 spigot;
#X obj 385 779 mod 7;
#X msg 849 600 0;
#X obj 948 476 loadbang;
#X obj 868 352 route kick;
#X obj 1040 352 route kick_sequence;
#X obj 915 600 tgl 39 0 empty empty empty 17 7 0 10 #e4e4e4 #4d4d4d #373737 0 1;
#X obj 587 718 rich-synth-hz;
#X obj 719 718 rich-synth-hz;
#X obj 873 718 rich-synth-hz;
#X obj 979 718 rich-synth-hz;
#X obj 1442 409 bng 28 250 50 0 empty empty empty 17 7 0 10 #e4e4e4 #4d4d4d #373737;
#N canvas 0 22 450 300 scale-to-note 0;
#X obj 624 337 tabread scale1_handson;
#X obj 624 377 + 60;
#X obj 624 480 mtof;
#X obj 643 260 inlet;
#X obj 674 563 outlet;
#X obj 624 422 - 12;
#X connect 0 0 1 0;
#X connect 1 0 5 0;
#X connect 2 0 4 0;
#X connect 3 0 0 0;
#X connect 5 0 2 0;
#X restore 1098 577 pd scale-to-note;
#X floatatom 1115 625 8 0 0 0 - - - 12;
#X floatatom 1280 625 5 0 0 0 - - - 12;
#X floatatom 1456 625 5 0 0 0 - - - 12;
#X floatatom 1646 625 5 0 0 0 - - - 12;
#X msg 1116 520 0;
#X msg 1293 520 2;
#X msg 1473 520 4;
#X msg 1527 520 5;
#N canvas 0 22 450 300 scale-to-note 0;
#X obj 624 337 tabread scale1_handson;
#X obj 624 377 + 60;
#X obj 624 480 mtof;
#X obj 643 260 inlet;
#X obj 674 563 outlet;
#X obj 624 422 - 12;
#X connect 0 0 1 0;
#X connect 1 0 5 0;
#X connect 2 0 4 0;
#X connect 3 0 0 0;
#X connect 5 0 2 0;
#X restore 1258 577 pd scale-to-note;
#N canvas 0 22 450 300 scale-to-note 0;
#X obj 624 337 tabread scale1_handson;
#X obj 624 377 + 60;
#X obj 624 480 mtof;
#X obj 643 260 inlet;
#X obj 674 563 outlet;
#X obj 624 422 - 12;
#X connect 0 0 1 0;
#X connect 1 0 5 0;
#X connect 2 0 4 0;
#X connect 3 0 0 0;
#X connect 5 0 2 0;
#X restore 1468 577 pd scale-to-note;
#N canvas 0 22 450 300 scale-to-note 0;
#X obj 624 337 tabread scale1_handson;
#X obj 624 377 + 60;
#X obj 624 480 mtof;
#X obj 643 260 inlet;
#X obj 674 563 outlet;
#X obj 624 422 - 12;
#X connect 0 0 1 0;
#X connect 1 0 5 0;
#X connect 2 0 4 0;
#X connect 3 0 0 0;
#X connect 5 0 2 0;
#X restore 1603 576 pd scale-to-note;
#X obj 260 958 bng 25 250 50 0 empty empty empty 17 7 0 10 #e4e4e4 #4d4d4d #373737;
#X obj 18 980 loadbang;
#X obj 18 1006 bng 25 250 50 0 empty empty empty 17 7 0 10 #e4e4e4 #4d4d4d #373737;
#X obj 844 420 select 0 1;
#X obj 825 458 bng 25 250 50 0 empty empty empty 17 7 0 10 #e4e4e4 #4d4d4d #373737;
#X obj 864 458 bng 25 250 50 0 empty empty empty 17 7 0 10 #e4e4e4 #4d4d4d #373737;
#X obj 897 523 bng 25 250 50 0 empty empty empty 17 7 0 10 #e4e4e4 #4d4d4d #373737;
#X msg 62 1027 36;
#N canvas 0 0 450 250 (subpatch) 0;
#X array parameters 3 float 2;
#X coords 0 12 3 -1 164 127 1;
#X restore 853 1422 graph;
#X msg 232 1621 \; parameters 0 4 4 6 \;;
#X msg 413 1621 \; parameters 0 4 5 6 \;;
#X msg 47 1621 \; parameters 0 0 5 7 \;;
#X obj 253 1528 select 0 1 2 3;
#X obj 1293 1570 hradio 136 1 0 4 empty empty Sequence 167 61 0 68 #a5e1e4 #4d4d4d #373737 0;
#X obj 1 1176 array get parameters;
#X listbox 1 1215 20 0 0 0 - - - 0;
#X obj 38 1123 bng 25 250 50 0 empty empty empty 17 7 0 10 #e4e4e4 #4d4d4d #373737;
#X obj 1 1258 unpack 0 0 0;
#X msg 574 1621 \; parameters 0 1 12 16 \;;
#X msg 618 1356 \; scale1_handson 0 0 2 4 5 7 9 10 \;;
#X obj 1231 352 route octave;
#X floatatom 1220 387 5 0 0 0 - - - 12;
#X floatatom 868 387 5 0 0 0 - - - 12;
#X floatatom 1040 406 5 0 0 0 - - - 12;
#X obj 1364 352 route sequence_index;
#X floatatom 1364 387 5 0 0 0 - - - 12;
#X msg 850 1356 \; scale1_handson 0 7 9 11 12 14 16 17 \;;
#X obj 512 1440 bng 25 250 50 0 empty empty empty 17 7 0 10 #e4e4e4 #4d4d4d #373737;
#X floatatom 567 1177 4 0 0 0 - - - 12;
#X floatatom 635 1160 5 0 0 0 - - - 12;
#X obj 618 1197 +;
#X obj 464 1257 select 0 1 2;
#X obj 1543 352 route scale;
#X obj 389 530 loadbang;
#X obj 15 57 loadbang;
#X floatatom 1543 387 5 0 0 0 - - - 16;
#X obj 633 1227 mod 3;
#X obj 1985 413 rich-synth-hz;
#X floatatom 1989 349 5 0 0 0 - - - 12;
#X msg 2171 317 440;
#X obj 1773 662 output~;
#X floatatom 2096 371 5 0 0 0 - - - 12;
#X obj 2044 328 tgl 25 0 empty empty empty 17 7 0 10 #e4e4e4 #4d4d4d #373737 0 1;
#X floatatom 1818 420 5 0 0 0 - - - 12;
#X obj 1818 476 select 0 1;
#X obj 1800 352 route melody;
#X obj 1759 603 *~;
#X obj 1861 603 *~;
#X obj 1745 452 tgl 25 0 empty empty empty 17 7 0 10 #e4e4e4 #4d4d4d #373737 0 1;
#X obj 1801 565 vline~;
#X msg 1759 526 0 150;
#X msg 1851 526 1 150;
#X obj 1646 352 route melody_controls;
#X obj 1645 381 unpack 0 0;
#X floatatom 1645 420 5 0 0 0 - - - 12;
#X floatatom 1697 420 5 0 0 0 - - - 12;
#X obj 1661 550 * 600;
#X obj 1322 992 hsl 367 203 0.01 1 0 0 empty empty melody 64 95 0 79 #eb6c85 #000000 #373737 0 1;
#X obj 1322 742 hsl 352 216 0 1 0 0 empty empty empty -2 -8 0 10 #dceb06 #000000 #373737 0 1;
#X obj 1826 958 bng 343 250 50 0 empty empty empty 17 7 0 10 #e4e4e4 #4d4d4d #373737;
#X connect 0 0 6 0;
#X connect 1 0 2 0;
#X connect 2 0 0 0;
#X connect 3 0 1 0;
#X connect 4 0 5 0;
#X connect 4 1 45 0;
#X connect 6 0 7 0;
#X connect 6 0 8 0;
#X connect 6 0 48 0;
#X connect 6 0 49 0;
#X connect 6 0 74 0;
#X connect 6 0 75 0;
#X connect 6 0 114 0;
#X connect 6 0 118 0;
#X connect 6 0 126 0;
#X connect 6 0 139 0;
#X connect 6 0 146 0;
#X connect 7 0 9 0;
#X connect 8 0 10 0;
#X connect 9 0 4 0;
#X connect 10 0 41 0;
#X connect 11 0 12 0;
#X connect 11 1 13 0;
#X connect 12 0 77 2;
#X connect 12 0 78 2;
#X connect 12 0 79 2;
#X connect 12 0 80 2;
#X connect 12 0 152 0;
#X connect 16 0 71 0;
#X connect 17 0 16 3;
#X connect 18 0 16 2;
#X connect 19 0 16 1;
#X connect 20 0 59 0;
#X connect 22 0 125 0;
#X connect 23 0 24 0;
#X connect 24 0 25 0;
#X connect 25 0 29 0;
#X connect 26 0 28 0;
#X connect 27 0 29 1;
#X connect 28 0 27 0;
#X connect 29 0 33 0;
#X connect 30 0 31 0;
#X connect 31 0 32 0;
#X connect 32 0 33 1;
#X connect 33 0 34 0;
#X connect 34 0 46 0;
#X connect 35 0 19 0;
#X connect 36 0 18 0;
#X connect 37 0 17 0;
#X connect 38 0 35 0;
#X connect 38 0 36 0;
#X connect 38 0 37 0;
#X connect 40 0 47 0;
#X connect 41 0 40 0;
#X connect 45 0 16 0;
#X connect 45 0 153 0;
#X connect 47 0 16 0;
#X connect 47 0 153 0;
#X connect 48 0 11 0;
#X connect 49 0 50 0;
#X connect 50 0 51 0;
#X connect 51 0 52 0;
#X connect 51 1 56 0;
#X connect 52 0 57 0;
#X connect 54 0 58 0;
#X connect 55 0 58 1;
#X connect 56 0 57 0;
#X connect 57 0 54 1;
#X connect 57 0 55 1;
#X connect 59 0 23 0;
#X connect 60 0 61 0;
#X connect 62 0 61 3;
#X connect 63 0 94 0;
#X connect 64 0 65 0;
#X connect 65 0 46 3;
#X connect 66 0 67 0;
#X connect 67 0 68 0;
#X connect 68 0 60 0;
#X connect 69 0 66 0;
#X connect 71 0 20 0;
#X connect 72 0 76 0;
#X connect 73 0 100 0;
#X connect 74 0 116 0;
#X connect 75 0 117 0;
#X connect 76 0 77 1;
#X connect 76 0 78 1;
#X connect 76 0 79 1;
#X connect 76 0 80 1;
#X connect 77 0 54 0;
#X connect 77 1 55 0;
#X connect 78 0 54 0;
#X connect 78 1 55 0;
#X connect 79 0 54 0;
#X connect 79 1 55 0;
#X connect 80 0 54 0;
#X connect 80 1 55 0;
#X connect 81 0 87 0;
#X connect 81 0 88 0;
#X connect 81 0 89 0;
#X connect 81 0 90 0;
#X connect 82 0 83 0;
#X connect 83 0 77 0;
#X connect 84 0 78 0;
#X connect 85 0 79 0;
#X connect 86 0 80 0;
#X connect 87 0 82 0;
#X connect 88 0 91 0;
#X connect 89 0 92 0;
#X connect 90 0 93 0;
#X connect 91 0 84 0;
#X connect 92 0 85 0;
#X connect 93 0 86 0;
#X connect 94 0 62 0;
#X connect 95 0 96 0;
#X connect 96 0 101 0;
#X connect 99 0 60 0;
#X connect 100 0 72 0;
#X connect 101 0 60 0;
#X connect 106 0 105 0;
#X connect 106 1 103 0;
#X connect 106 2 104 0;
#X connect 106 3 112 0;
#X connect 107 0 106 0;
#X connect 107 0 110 0;
#X connect 108 0 109 0;
#X connect 109 0 111 0;
#X connect 110 0 108 0;
#X connect 111 0 19 0;
#X connect 111 1 18 0;
#X connect 111 2 17 0;
#X connect 114 0 115 0;
#X connect 115 0 30 0;
#X connect 116 0 97 0;
#X connect 118 0 119 0;
#X connect 119 0 107 0;
#X connect 121 0 81 0;
#X connect 122 0 22 0;
#X connect 122 0 124 1;
#X connect 123 0 124 0;
#X connect 124 0 130 0;
#X connect 125 0 39 0;
#X connect 125 0 121 0;
#X connect 125 1 113 0;
#X connect 125 1 121 0;
#X connect 125 2 120 0;
#X connect 125 2 121 0;
#X connect 126 0 129 0;
#X connect 127 0 38 0;
#X connect 128 0 3 0;
#X connect 129 0 123 0;
#X connect 130 0 122 0;
#X connect 131 0 140 0;
#X connect 131 1 141 0;
#X connect 132 0 131 2;
#X connect 133 0 135 0;
#X connect 135 0 131 0;
#X connect 136 0 131 1;
#X connect 137 0 138 0;
#X connect 138 0 144 0;
#X connect 138 1 145 0;
#X connect 139 0 137 0;
#X connect 140 0 134 0;
#X connect 141 0 134 1;
#X connect 142 0 138 0;
#X connect 143 0 140 1;
#X connect 143 0 141 1;
#X connect 144 0 143 0;
#X connect 145 0 143 0;
#X connect 146 0 147 0;
#X connect 147 0 148 0;
#X connect 147 1 149 0;
#X connect 148 0 151 0;
#X connect 148 0 150 0;
#X connect 150 0 135 0;
