#N canvas 827 239 527 327 12;
#X declare -path ../../comptools;
#X declare -path ../../my_tools;
#X obj 126 211 oscparse;
#X msg 259 57 listen 4321;
#X obj 230 145 netreceive -u -b;
#X obj 259 10 bng 25 250 50 0 empty empty empty 17 7 0 10 #e4e4e4 #4d4d4d #373737;
#X obj 36 464 select 0 1;
#X obj 27 530 bng 25 250 50 0 empty empty empty 17 7 0 10 #e4e4e4 #4d4d4d #373737;
#X obj 126 281 list trim;
#X obj 27 352 route note;
#X obj 230 352 route sequence;
#X floatatom 43 407 5 0 0 0 - - - 12;
#X floatatom 268 407 5 0 0 0 - - - 12;
#X obj 430 397 unpack 0 0;
#X floatatom 417 465 5 0 0 0 - - - 12;
#X floatatom 507 445 5 0 0 0 - - - 12;
#X obj 571 37 cnv 19 200 60 empty empty biblioteca\ de\ CAC 20 12 0 12 #e3c6ff #404040 0;
#X obj 582 69 declare -path ../../comptools;
#X obj 317 742 xk+1;
#X floatatom 511 672 5 0 0 0 - - - 12;
#X floatatom 451 672 5 0 0 0 - - - 12;
#X floatatom 407 672 5 0 0 0 - - - 12;
#X floatatom 334 808 5 0 0 0 - - - 12;
#N canvas 0 0 450 250 (subpatch) 0;
#X array scale1_handson 7 float 2;
#X coords 0 12 7 -1 164 127 1;
#X restore 708 1170 graph;
#X obj 153 1194 hradio 20 1 0 5 empty empty empty 0 -8 0 10 #e4e4e4 #4d4d4d #373737 0;
#X obj 480 1243 select 0 1 2 3;
#X floatatom 341 878 5 0 0 0 - - - 12;
#X obj 341 910 + 60;
#X floatatom 341 943 5 0 0 0 - - - 12;
#X obj 560 878 hsl 232 30 -12 12 0 0 empty in-key key 10 15 0 20 #c7c6ff #000000 #000000 0 0;
#X floatatom 462 980 5 0 0 0 - - - 12;
#X obj 530 938 int;
#X obj 341 980 + 0;
#X obj 660 968 hradio 30 1 0 5 empty in-oitava octave 10 15 0 20 #e3c6ff #000000 #000000 0;
#N canvas 992 356 202 161 change-octave 0;
#X obj 19 16 inlet;
#X obj 20 48 expr ($f1-2)*12;
#X floatatom 21 74 5 0 0 0 - - - 0;
#X obj 21 98 outlet;
#X connect 0 0 1 0;
#X connect 1 0 2 0;
#X connect 2 0 3 0;
#X restore 554 1038 pd change-octave;
#X floatatom 501 1038 7 0 0 0 - - - 12;
#X obj 341 1020 + 0;
#X floatatom 343 1063 5 0 0 0 - - - 12;
#X msg 411 640 0;
#X msg 451 640 5;
#X msg 513 640 7;
#X obj 447 560 bng 25 250 50 0 empty empty empty 17 7 0 10 #e4e4e4 #4d4d4d #373737;
#X msg 92 1319 \; scale1_handson 0 0 2 4 5 7 9 11 \;;
#X obj 307 520 tgl 25 0 empty empty empty 17 7 0 10 #e4e4e4 #4d4d4d #373737 0 1;
#X obj 307 458 bng 25 250 50 0 empty empty empty 17 7 0 10 #e4e4e4 #4d4d4d #373737;
#X msg 311 1329 \; scale1_handson 0 0 2 3 5 7 9 11 \;;
#X msg 488 1360 \; scale1_handson 0 0 2 4 5 7 8 11 \;;
#X msg 688 1329 \; scale1_handson 0 0 2 3 5 7 8 11 \;;
#X obj 126 541 bng 25 250 50 0 empty empty empty 17 7 0 10 #e4e4e4 #4d4d4d #373737;
#X obj 343 1129 send-note-out;
#X obj 317 577 metro 150;
#X obj 430 352 route synth_controls;
#X obj 701 352 route synth;
#X floatatom 719 420 5 0 0 0 - - - 12;
#X obj 719 476 select 0 1;
#X msg 660 526 0 500;
#X obj 664 138 declare -path ../../my_tools;
#X obj 929 837 *~;
#X obj 1035 840 *~;
#X msg 752 526 1 500;
#X obj 719 577 vline~;
#X obj 960 878 output~;
#X obj 341 840 tabread scale1_handson;
#X floatatom 140 1022 5 0 0 0 - - - 12;
#X obj 180 1113 send-note-out;
#X msg 266 1022 2;
#X obj 252 896 loadbang;
#X obj 618 1113 loadbang;
#X msg 517 1139 1;
#X obj 60 824 random 2;
#X floatatom 79 897 5 0 0 0 - - - 12;
#X obj 79 938 select 0 1;
#X obj 27 779 select 0 1;
#X obj 153 846 spigot;
#X obj 385 779 mod 7;
#X msg 849 600 0;
#X obj 948 476 loadbang;
#X obj 868 352 route kick;
#X obj 1012 352 route kick_sequence;
#X msg 868 387;
#X msg 1012 387;
#X obj 915 600 tgl 39 0 empty empty empty 17 7 0 10 #e4e4e4 #4d4d4d #373737 0 1;
#X obj 587 718 rich-synth-hz;
#X obj 719 718 rich-synth-hz;
#X obj 873 718 rich-synth-hz;
#X obj 979 718 rich-synth-hz;
#X obj 1442 409 bng 28 250 50 0 empty empty empty 17 7 0 10 #e4e4e4 #4d4d4d #373737;
#N canvas 0 22 450 300 scale-to-note 1;
#X obj 624 337 tabread scale1_handson;
#X obj 624 377 + 60;
#X obj 624 480 mtof;
#X obj 643 260 inlet;
#X obj 674 563 outlet;
#X obj 624 422 - 12;
#X connect 0 0 1 0;
#X connect 1 0 5 0;
#X connect 2 0 4 0;
#X connect 3 0 0 0;
#X connect 5 0 2 0;
#X restore 1098 577 pd scale-to-note;
#X floatatom 1115 625 8 0 0 0 - - - 12;
#X floatatom 1280 625 5 0 0 0 - - - 12;
#X floatatom 1456 625 5 0 0 0 - - - 12;
#X floatatom 1646 625 5 0 0 0 - - - 12;
#X msg 1116 520 0;
#X msg 1293 520 2;
#X msg 1473 520 4;
#X msg 1690 520 5;
#N canvas 0 22 450 300 scale-to-note 0;
#X obj 624 337 tabread scale1_handson;
#X obj 624 377 + 60;
#X obj 624 480 mtof;
#X obj 643 260 inlet;
#X obj 674 563 outlet;
#X obj 624 422 - 12;
#X connect 0 0 1 0;
#X connect 1 0 5 0;
#X connect 2 0 4 0;
#X connect 3 0 0 0;
#X connect 5 0 2 0;
#X restore 1258 577 pd scale-to-note;
#N canvas 0 22 450 300 scale-to-note 0;
#X obj 624 337 tabread scale1_handson;
#X obj 624 377 + 60;
#X obj 624 480 mtof;
#X obj 643 260 inlet;
#X obj 674 563 outlet;
#X obj 624 422 - 12;
#X connect 0 0 1 0;
#X connect 1 0 5 0;
#X connect 2 0 4 0;
#X connect 3 0 0 0;
#X connect 5 0 2 0;
#X restore 1468 577 pd scale-to-note;
#N canvas 0 22 450 300 scale-to-note 0;
#X obj 624 337 tabread scale1_handson;
#X obj 624 377 + 60;
#X obj 624 480 mtof;
#X obj 643 260 inlet;
#X obj 674 563 outlet;
#X obj 624 422 - 12;
#X connect 0 0 1 0;
#X connect 1 0 5 0;
#X connect 2 0 4 0;
#X connect 3 0 0 0;
#X connect 5 0 2 0;
#X restore 1603 576 pd scale-to-note;
#X obj 260 958 bng 25 250 50 0 empty empty empty 17 7 0 10 #e4e4e4 #4d4d4d #373737;
#X obj 18 980 loadbang;
#X obj 18 1006 bng 25 250 50 0 empty empty empty 17 7 0 10 #e4e4e4 #4d4d4d #373737;
#X obj 844 420 select 0 1;
#X obj 825 458 bng 25 250 50 0 empty empty empty 17 7 0 10 #e4e4e4 #4d4d4d #373737;
#X obj 864 458 bng 25 250 50 0 empty empty empty 17 7 0 10 #e4e4e4 #4d4d4d #373737;
#X obj 897 523 bng 25 250 50 0 empty empty empty 17 7 0 10 #e4e4e4 #4d4d4d #373737;
#X msg 62 1027 36;
#N canvas 0 0 450 250 (subpatch) 0;
#X array parameters 3 float 2;
#X coords 0 12 3 -1 164 127 1;
#X restore 853 1422 graph;
#X msg 232 1621 \; parameters 0 4 4 6 \;;
#X msg 413 1621 \; parameters 0 4 5 6 \;;
#X msg 47 1621 \; parameters 0 0 5 7 \;;
#X obj 253 1528 select 0 1 2 3;
#X obj 50 1503 hradio 20 1 0 4 empty empty empty 0 -8 0 10 #e4e4e4 #4d4d4d #373737 0;
#X obj 1 1176 array get parameters;
#X obj 979 1800 palette/drums.m~;
#X obj 1208 1843 output~;
#X floatatom 1026 1718 5 0 0 0 - - - 12;
#X obj 1009 1658 bng 25 250 50 0 empty empty empty 17 7 0 10 #e4e4e4 #4d4d4d #373737;
#X listbox 1 1215 20 0 0 0 - - - 0;
#X obj 38 1123 bng 25 250 50 0 empty empty empty 17 7 0 10 #e4e4e4 #4d4d4d #373737;
#X obj 1 1258 unpack 0 0 0;
#X msg 574 1621 \; parameters 0 1 12 16 \;;
#X msg 952 1329 \; scale1_handson 0 0 2 4 5 7 9 10 \;;
#X connect 0 0 6 0;
#X connect 1 0 2 0;
#X connect 2 0 0 0;
#X connect 3 0 1 0;
#X connect 4 0 5 0;
#X connect 4 1 46 0;
#X connect 6 0 7 0;
#X connect 6 0 8 0;
#X connect 6 0 49 0;
#X connect 6 0 50 0;
#X connect 6 0 75 0;
#X connect 6 0 76 0;
#X connect 7 0 9 0;
#X connect 8 0 10 0;
#X connect 9 0 4 0;
#X connect 10 0 42 0;
#X connect 11 0 12 0;
#X connect 11 1 13 0;
#X connect 12 0 80 2;
#X connect 12 0 81 2;
#X connect 12 0 82 2;
#X connect 12 0 83 2;
#X connect 16 0 72 0;
#X connect 17 0 16 3;
#X connect 18 0 16 2;
#X connect 19 0 16 1;
#X connect 20 0 60 0;
#X connect 22 0 23 0;
#X connect 22 0 84 0;
#X connect 23 0 40 0;
#X connect 23 1 43 0;
#X connect 23 2 44 0;
#X connect 23 3 45 0;
#X connect 23 4 120 0;
#X connect 24 0 25 0;
#X connect 25 0 26 0;
#X connect 26 0 30 0;
#X connect 27 0 29 0;
#X connect 28 0 30 1;
#X connect 29 0 28 0;
#X connect 30 0 34 0;
#X connect 31 0 32 0;
#X connect 32 0 33 0;
#X connect 33 0 34 1;
#X connect 34 0 35 0;
#X connect 35 0 47 0;
#X connect 36 0 19 0;
#X connect 37 0 18 0;
#X connect 38 0 17 0;
#X connect 39 0 36 0;
#X connect 39 0 37 0;
#X connect 39 0 38 0;
#X connect 41 0 48 0;
#X connect 42 0 41 0;
#X connect 46 0 16 0;
#X connect 48 0 16 0;
#X connect 49 0 11 0;
#X connect 50 0 51 0;
#X connect 51 0 52 0;
#X connect 52 0 53 0;
#X connect 52 1 57 0;
#X connect 53 0 58 0;
#X connect 55 0 59 0;
#X connect 56 0 59 1;
#X connect 57 0 58 0;
#X connect 58 0 55 1;
#X connect 58 0 56 1;
#X connect 60 0 24 0;
#X connect 61 0 62 0;
#X connect 63 0 62 3;
#X connect 64 0 97 0;
#X connect 65 0 66 0;
#X connect 66 0 47 3;
#X connect 67 0 68 0;
#X connect 68 0 69 0;
#X connect 69 0 61 0;
#X connect 70 0 67 0;
#X connect 72 0 20 0;
#X connect 73 0 79 0;
#X connect 74 0 103 0;
#X connect 75 0 77 0;
#X connect 76 0 78 0;
#X connect 77 0 100 0;
#X connect 79 0 80 1;
#X connect 79 0 81 1;
#X connect 79 0 82 1;
#X connect 79 0 83 1;
#X connect 80 0 55 0;
#X connect 80 1 56 0;
#X connect 81 0 55 0;
#X connect 81 1 56 0;
#X connect 82 0 55 0;
#X connect 82 1 56 0;
#X connect 83 0 55 0;
#X connect 83 1 56 0;
#X connect 84 0 90 0;
#X connect 84 0 91 0;
#X connect 84 0 92 0;
#X connect 84 0 93 0;
#X connect 85 0 86 0;
#X connect 86 0 80 0;
#X connect 87 0 81 0;
#X connect 88 0 82 0;
#X connect 89 0 83 0;
#X connect 90 0 85 0;
#X connect 91 0 94 0;
#X connect 92 0 95 0;
#X connect 93 0 96 0;
#X connect 94 0 87 0;
#X connect 95 0 88 0;
#X connect 96 0 89 0;
#X connect 97 0 63 0;
#X connect 98 0 99 0;
#X connect 99 0 104 0;
#X connect 100 0 101 0;
#X connect 100 1 102 0;
#X connect 102 0 61 0;
#X connect 103 0 73 0;
#X connect 104 0 61 0;
#X connect 109 0 108 0;
#X connect 109 1 106 0;
#X connect 109 2 107 0;
#X connect 109 3 119 0;
#X connect 110 0 109 0;
#X connect 110 0 117 0;
#X connect 111 0 116 0;
#X connect 112 0 113 0;
#X connect 114 0 112 0;
#X connect 115 0 114 0;
#X connect 116 0 118 0;
#X connect 117 0 111 0;
#X connect 118 0 19 0;
#X connect 118 1 18 0;
#X connect 118 2 17 0;
